<svg width="406" height="457" xmlns="http://www.w3.org/2000/svg">

 <g>
  <title>Layer 1</title>
  <g id="svg_1">
   <path id="svg_2" fill="#ffb6b6" d="m155.53307,279.99431c2.30531,4.46264 1.87197,9.26954 -0.9679,10.73656c-2.83986,1.46701 -7.01082,-0.9614 -9.31612,-5.42405c-1.00911,-1.95345 -1.49335,-3.97285 -1.48081,-5.74922l-9.53101,-19.03203l9.02648,-4.28245l8.43766,19.21639c1.45595,1.01779 2.82259,2.58135 3.8317,4.5348z"/>
   <g id="svg_3">
    <polygon id="svg_4" fill="#ffb6b6" points="84.60533 451.71752 92.73168 451.71672 96.59743 420.3719 84.60368 420.37272 84.60533 451.71752"/>
    <path id="svg_5" fill="#2f2e41" d="m112.44719,451.53317l0,0c0.25301,0.42612 0.38653,1.80152 0.38653,2.29709l0,0c0,1.52326 -1.23484,2.7581 -2.75809,2.7581l-25.16634,0c-1.03917,0 -1.88158,-0.84241 -1.88158,-1.88158l0,-1.04776s-1.24497,-3.14904 1.3182,-7.03041c0,0 3.18565,3.03919 7.94583,-1.72099l1.40373,-2.54295l10.1611,7.43128l5.63215,0.69326c1.23218,0.15167 2.32465,-0.02354 2.95847,1.04395l0,0.00001z"/>
   </g>
   <g id="svg_6">
    <polygon id="svg_7" fill="#ffb6b6" points="46.48117 451.71752 54.60752 451.71672 58.47327 420.3719 46.47952 420.37272 46.48117 451.71752"/>
    <path id="svg_8" fill="#2f2e41" d="m74.32303,451.53317l0,0c0.25301,0.42612 0.38653,1.80152 0.38653,2.29709l0,0c0,1.52326 -1.23484,2.7581 -2.75809,2.7581l-25.16634,0c-1.03917,0 -1.88158,-0.84241 -1.88158,-1.88158l0,-1.04776s-1.24497,-3.14904 1.3182,-7.03041c0,0 3.18565,3.03919 7.94583,-1.72099l1.40373,-2.54295l10.1611,7.43128l5.63215,0.69326c1.23218,0.15167 2.32465,-0.02354 2.95847,1.04395l0,0.00001z"/>
   </g>
   <polygon id="svg_9" fill="#2f2e41" points="34.97848 266.77741 31.55506 287.6983 42.2057 355.40594 44.86836 437.18763 59.24792 437.18763 66.55002 359.9705 65.78926 308.99958 82.90636 437.94839 97.849 437.94839 99.26269 276.28691 34.97848 266.77741"/>
   <path id="svg_10" fill="#01fb71" d="m52.85634,158.36912l26.92012,0l23.29004,13.69368c-3.62484,-0.92135 -6.42515,32.70809 -6.5204,62.42281c-0.00633,1.97451 -1.96294,4.24471 -1.94483,6.17336c0.0156,1.66172 2.00271,2.98925 2.03722,4.60133c0.03225,1.50656 0.07291,2.98829 0.12227,4.4393c0.04098,1.20464 -2.21263,2.80044 -2.15949,3.95936c0.06788,1.48053 2.44639,2.50867 2.53471,3.90206c0.54298,8.56572 1.47886,15.35199 2.88747,18.72588c0,0 -60.10003,16.73672 -64.66459,-9.12912c0,0 0.26066,-9.29699 0.22408,-22.13565c-0.00325,-1.13908 -0.97335,-2.17236 -0.98166,-3.36318c-0.00618,-0.88537 0.95064,-1.91761 0.94128,-2.82771c-0.0077,-0.74818 -0.93124,-1.40943 -0.94128,-2.17229c-0.00598,-0.45469 0.90232,-1.00655 0.89545,-1.46594c-0.36498,-24.41361 -2.00419,-55.18077 -7.74547,-63.13023l25.10508,-13.69368l0,0.00002z"/>
   <path id="svg_11" fill="#01fb71" d="m79.48294,158.36912s17.4438,6.33911 22.97888,11.38909c2.94129,2.68351 22.66672,53.27551 22.66672,53.27551l27.39784,47.71441l-14.24142,5.40954l-29.13238,-43.99483l-12.93292,-28.90888l-16.73672,-44.88484z"/>
   <path id="svg_12" fill="#ffb6b6" d="m43.30131,281.79985c2.54422,4.33089 2.37252,9.15422 -0.3835,10.77327c-2.75602,1.61905 -7.05268,-0.57931 -9.59689,-4.9102c-1.11369,-1.89578 -1.70686,-3.8859 -1.79079,-5.66034l-10.55035,-18.48644l8.78063,-4.76625l9.46862,18.7299c1.50906,0.93723 2.95859,2.42428 4.07228,4.32006z"/>
   <path id="svg_13" fill="#01fb71" d="m49.05254,181.95267l-7.6076,-17.49748s-17.87786,5.7057 -17.87786,14.07406c0,0 -10.65064,63.90383 -9.12912,79.87979l9.88988,17.49748l14.07406,-11.03102l-8.74874,-20.16014l19.39938,-62.76269z"/>
   <polygon id="svg_14" fill="#2f2e41" points="33.40674 295.62938 42.38042 277.80843 52.85634 292.26286 43.42802 301.39198 33.40674 295.62938"/>
   <circle id="svg_15" fill="#ffb6b6" r="17.41061" cy="135.93185" cx="66.06273"/>
   <path id="svg_16" fill="#2f2e41" d="m79.63923,116.48275c-3.02557,-0.96901 -4.45717,-4.56794 -7.22476,-6.12798c-3.06065,-1.72524 -6.72217,-2.80225 -10.09728,-1.8261c-2.07087,0.59896 -3.87505,1.92276 -5.94739,2.51668c-0.36226,0.10383 -0.74339,0.17541 -1.13032,0.21227c-2.2287,0.21232 -4.14206,1.54889 -5.25588,3.49095l-0.02909,0.05018c-0.65386,1.11896 -1.58328,2.04571 -2.40816,3.04522c-3.01009,3.64763 -4.63927,8.38811 -4.60573,13.11724c0.03603,5.08346 1.99201,10.13051 5.39105,13.91061l0.86829,-0.40033c2.09834,1.81253 4.19667,3.62506 6.29505,5.43758c-1.14194,-4.12047 -2.29454,-8.38517 -1.68998,-12.6179c0.60453,-4.23281 3.451,-8.45577 7.64789,-9.273c1.58769,-0.30907 3.2622,-0.12225 4.80339,-0.61304c1.54123,-0.4908 2.96079,-2.07527 2.43206,-3.60399c0.95434,2.52305 4.51392,2.37403 6.96388,3.5028c5.48344,2.52636 3.47618,-1.37793 8.23617,2.33599c1.60783,-8.91089 7.76669,-9.30882 -4.24917,-13.15719l-0.00002,0.00001z"/>
  </g>
  <path id="svg_17" fill="#ccc" d="m0,455.98619c0,0.66003 0.53003,1.19 1.19006,1.19l403.28998,0c0.65997,0 1.19,-0.52997 1.19,-1.19c0,-0.65997 -0.53003,-1.19 -1.19,-1.19l-403.28998,0c-0.66003,0 -1.19006,0.53003 -1.19006,1.19z"/>
  <path id="svg_18" fill="#3f3d56" d="m351.72174,457.17619l-176.42479,0c-21.51191,0 -39.01333,-17.50142 -39.01333,-39.01374l0,-379.14912c0,-21.51191 17.50142,-39.01333 39.01333,-39.01333l176.4248,0c21.51151,0 39.01293,17.50142 39.01293,39.01333l0,379.14912c0,21.51232 -17.50142,39.01374 -39.01293,39.01374l-0.00001,0z"/>
  <path id="svg_19" fill="#3f3d56" d="m390.73483,139.4635c-0.91025,0 -1.65045,0.74021 -1.65045,1.65045l0,52.81453c0,0.91025 0.74021,1.65045 1.65045,1.65045s1.65045,-0.74021 1.65045,-1.65045l0,-52.81453c0,-0.91025 -0.74021,-1.65045 -1.65045,-1.65045z"/>
  <path id="svg_20" fill="#fff" d="m387.0215,39.01362l0,379.14232c0,18.7244 -14.57349,34.04062 -33.00082,35.22894l-0.00826,0c-0.27234,0.01652 -0.54463,0.03304 -0.82523,0.0413c-0.48691,0.02473 -0.97376,0.03299 -1.46888,0.03299c0,0 -1.81551,-0.13206 -5.13294,-0.37962c-3.35042,-0.24756 -8.22749,-0.61892 -14.30946,-1.10578c-1.82372,-0.14032 -3.74651,-0.29712 -5.77659,-0.46213c-4.04358,-0.33011 -8.48331,-0.69321 -13.24488,-1.10583c-1.89801,-0.1568 -3.86206,-0.33006 -5.86735,-0.50338c-10.24931,-0.883 -21.72824,-1.91453 -33.83431,-3.08634c-2.04655,-0.18984 -4.10961,-0.38788 -6.1892,-0.59419c-0.54463,-0.05777 -1.09757,-0.10728 -1.65045,-0.16506c-8.63189,-0.84996 -125.71564,-23.47767 -125.71564,-27.90092l0,-379.1423c0,-19.50007 15.80312,-35.30319 35.30324,-35.30319l21.07628,0c3.36694,0 6.07366,2.62422 6.36252,5.9829c0.02473,0.22283 0.04951,0.4456 0.09076,0.66843c0.61066,3.3752 3.70526,5.72708 7.13818,5.72708l107.08205,0c3.43292,0 6.52752,-2.35188 7.13818,-5.72708c0.04125,-0.22283 0.06603,-0.4456 0.09081,-0.66843c0.28881,-3.35868 2.99553,-5.9829 6.36247,-5.9829l21.07633,0c19.50007,0 35.30319,15.80312 35.30319,35.30319z"/>
  <path id="svg_21" fill="#3f3d56" d="m135.45854,99.8526c-0.91025,0 -1.65045,0.74021 -1.65045,1.65045l0,13.20363c0,0.91025 0.74021,1.65045 1.65045,1.65045s1.65045,-0.74021 1.65045,-1.65045l0,-13.20363c0,-0.91025 -0.74021,-1.65045 -1.65045,-1.65045z"/>
  <path id="svg_22" fill="#3f3d56" d="m135.45854,139.4635c-0.91025,0 -1.65045,0.74021 -1.65045,1.65045l0,25.58204c0,0.91025 0.74021,1.65045 1.65045,1.65045s1.65045,-0.74021 1.65045,-1.65045l0,-25.58204c0,-0.91025 -0.74021,-1.65045 -1.65045,-1.65045z"/>
  <path id="svg_23" fill="#3f3d56" d="m135.45854,175.77349c-0.91025,0 -1.65045,0.74021 -1.65045,1.65045l0,25.58204c0,0.91025 0.74021,1.65045 1.65045,1.65045s1.65045,-0.74021 1.65045,-1.65045l0,-25.58204c0,-0.91025 -0.74021,-1.65045 -1.65045,-1.65045z"/>
  <rect id="svg_24" fill="#e6e6e6" ry="0.31021" rx="0.31021" height="4.12614" width="32.18385" y="9.49024" x="163.92888"/>
  <circle id="svg_25" fill="#e6e6e6" r="3.30091" cy="10.31547" cx="335.85723"/>
  <circle id="svg_26" fill="#e6e6e6" r="3.30091" cy="10.31547" cx="344.93473"/>
  <circle id="svg_27" fill="#e6e6e6" r="3.30091" cy="10.31547" cx="354.01223"/>
  <path id="svg_28" fill="#e6e6e6" d="m333.5095,95.15896l-140,0c-2.20557,0 -4,-1.79443 -4,-4s1.79443,-4 4,-4l140,0c2.20557,0 4,1.79443 4,4s-1.79443,4 -4,4z"/>
  <path id="svg_29" fill="#e6e6e6" d="m357.04981,411.65896l-52,0c-2.20557,0 -4,-1.79443 -4,-4s1.79443,-4 4,-4l52,0c2.20557,0 4,1.79443 4,4s-1.79443,4 -4,4z"/>
  <path id="svg_30" fill="#e6e6e6" d="m218.04981,411.65896l-52,0c-2.20557,0 -4,-1.79443 -4,-4s1.79443,-4 4,-4l52,0c2.20557,0 4,1.79443 4,4s-1.79443,4 -4,4z"/>
  <rect id="svg_31" fill="#3f3d56" height="1" width="195.08105" y="105.90701" x="165.96895"/>
  <path id="svg_32" fill="#e6e6e6" d="m333.5095,156.15896l-140,0c-2.20557,0 -4,-1.79443 -4,-4s1.79443,-4 4,-4l140,0c2.20557,0 4,1.79443 4,4s-1.79443,4 -4,4z"/>
  <rect id="svg_33" fill="#3f3d56" height="1" width="195.08105" y="166.90701" x="165.96895"/>
  <path id="svg_34" fill="#e6e6e6" d="m333.5095,217.15896l-140,0c-2.20557,0 -4,-1.79443 -4,-4s1.79443,-4 4,-4l140,0c2.20557,0 4,1.79443 4,4s-1.79443,4 -4,4z"/>
  <rect id="svg_35" fill="#3f3d56" height="1" width="195.08105" y="227.90701" x="165.96895"/>
  <rect id="svg_36" fill="#3f3d56" height="1" width="195.08105" y="279.90701" x="165.96895"/>
  <rect id="svg_37" fill="#3f3d56" height="1" width="195.08105" y="331.90701" x="165.96895"/>
  <circle id="svg_38" fill="#01fb71" r="58" cy="310.48573" cx="264.88227"/>
 </g>
</svg>